<svg width="126" height="28" viewBox="0 0 126 28" fill="none" xmlns="http://www.w3.org/2000/svg">
<g clip-path="url(#clip0_79_151)">
<path d="M0 0V28H7.93885V17.7384H21.8318V28H29.7707V19.124C29.7707 18.246 29.3912 17.3954 28.7345 16.7643L22.8826 11.2631C22.2113 10.632 21.3065 10.2891 20.3725 10.2891H18.8694V0H10.9305V10.2616H7.95344V0H0Z" fill="#191719"/>
<path d="M39.4462 0V10.2616H40.9494C41.8833 10.2616 42.7881 10.6183 43.4594 11.2357L49.326 16.7506C49.9973 17.3817 50.3621 18.2322 50.3621 19.1102V20.5233H53.3392V0H61.2926V19.1377C61.2926 20.0157 60.9132 20.8662 60.2565 21.4973L54.3899 27.0123C53.7186 27.6433 52.8138 27.9863 51.8799 27.9863H42.4379V17.7246H31.522V0H39.4608H39.4462Z" fill="#191719"/>
<path d="M71.7996 7.46301V20.5233H74.7767V19.1102C74.7767 18.2185 75.1561 17.368 75.8128 16.7506L81.6648 11.2357C82.3361 10.6046 83.2409 10.2616 84.1749 10.2616H93.6169V27.9863H85.678V17.7246H82.701V27.9863H73.0109C72.2228 27.9863 71.4786 27.6982 70.924 27.1769L64.7218 21.3464C64.1672 20.8251 63.8462 20.1117 63.8462 19.3846V8.86232C63.8462 7.9706 64.2256 7.12004 64.8823 6.50269L70.7343 1.00147C71.4202 0.356688 72.325 0 73.2736 0H93.6461V7.46301H71.8142H71.7996Z" fill="#191719"/>
<path d="M125.402 21.0034C125.27 21.1818 125.125 21.3601 124.964 21.511L119.097 27.026C118.426 27.657 117.521 28 116.587 28H107.145V17.7384H96.2295V8.94464C96.2295 8.06663 96.5943 7.21607 97.251 6.59873L100.33 3.66291L103.118 1.00147C103.789 0.370407 104.694 0 105.642 0H116.471C117.405 0 118.309 0.356688 118.981 0.987751L124.949 6.59873C125.227 6.85938 125.46 7.14748 125.621 7.47673C125.869 7.92945 126 8.45076 126 8.95835V19.1514C126 19.8099 125.781 20.4547 125.402 21.0034ZM118.047 7.55904H107.131H104.154V10.2616H105.657C106.591 10.2616 107.481 10.6046 108.138 11.222C108.138 11.222 108.152 11.2357 108.167 11.2494L114.034 16.7643C114.034 16.7643 114.048 16.7918 114.063 16.7918C114.705 17.4091 115.07 18.246 115.07 19.124V20.537H118.047V7.55904Z" fill="#191719"/>
</g>
<defs>
<clipPath id="clip0_79_151">
<rect width="126" height="28" fill="white"/>
</clipPath>
</defs>
</svg>
